<svg xmlns="http://www.w3.org/2000/svg" width="340" height="400" aria-label="Payload Storage Bunny" role="img" viewBox="0 0 340 400"><style>@keyframes in-top{0%{transform:translate(-31px,-18px);opacity:0}to{transform:none;opacity:1}}@keyframes in-bot{0%{transform:translate(31px,18px);opacity:0}to{transform:none;opacity:1}}@keyframes fade{0%{opacity:0}to{opacity:.22}}@keyframes hop{0%,70%,90%,96%,to{transform:none}75%{transform:scale(1.025,.965)}83%{transform:translateY(-26px) scale(.99,1.015)}93%{transform:scale(1.015,.98)}}@keyframes shadow{0%,75%,90%,to{transform:none;opacity:.22}83%{transform:scale(.65);opacity:.08}}.bot,.top{animation:.9s cubic-bezier(.2,.8,.2,1) both}.top{animation-name:in-top}.bot{animation-name:in-bot;animation-delay:.1s}.hop,.shadow{animation:hop 5s 1.4s ease-in-out infinite;transform-box:fill-box;transform-origin:50% 100%}.shadow{animation:fade .9s both,shadow 5s 1.4s ease-in-out infinite;transform-origin:50% 50%;opacity:.22}@media (prefers-reduced-motion:reduce){.bot,.hop,.shadow,.top{animation:none}}</style><svg width="300" height="320" x="20" y="40" overflow="visible" viewBox="-10.04 -10.05 276.07 276.07"><ellipse cx="128" cy="272" fill="#ef6126" class="shadow" rx="64" ry="7"/><g class="hop"><path fill="#ef6126" d="M101.55 114.66a1.2 1.2 0 0 0 1.76-1.35l-20.32-75.8a2 2 0 0 1 1.42-2.45l13.39-3.59a2 2 0 0 1 2.45 1.41l26.59 99.26a1.2 1.2 0 0 0 2.32 0l26.59-99.26a2 2 0 0 1 2.45-1.41l13.39 3.59a2 2 0 0 1 1.42 2.45l-21.87 81.61a2 2 0 0 0 .93 2.25l26.48 15.29a2 2 0 0 1 1 1.73v43.56a2 2 0 0 0 1 1.73l18.6 10.74a1.2 1.2 0 0 0 1.8-1.04v-67.34a2 2 0 0 0-1-1.73l-22.96-13.26a2 2 0 0 1-.93-2.25l23.15-86.43a2 2 0 0 0-1.41-2.45L143.07 5.26a2 2 0 0 0-2.45 1.41l-11.46 42.78a1.2 1.2 0 0 1-2.32 0L115.38 6.67a2 2 0 0 0-2.45-1.41L58.2 19.92a2 2 0 0 0-1.41 2.45l20.84 77.81a2 2 0 0 0 .94 1.21Z" class="top"/><path fill="#ef6126" d="M137.28 161.16a2 2 0 0 0-1-1.73l-79.43-45.86a1.2 1.2 0 0 0-1.8 1.04v93.35a2 2 0 0 0 1 1.73L127 250.66a2 2 0 0 0 2 0l60.58-34.98a1.2 1.2 0 0 0 0-2.07l-18.6-10.74a2 2 0 0 0-2 0L129 225.95a2 2 0 0 1-2 0l-49.55-28.61a2 2 0 0 1-1-1.73v-43.94a1.2 1.2 0 0 1 1.8-1.04l57.23 33.04a1.2 1.2 0 0 0 1.8-1.04Z" class="bot"/></g></svg></svg>